<?xml version="1.0" encoding="UTF-8"?>
<svg width="110px" height="110px" viewBox="0 0 110 110" version="1.1" xmlns="http://www.w3.org/2000/svg" xmlns:xlink="http://www.w3.org/1999/xlink">
    <!-- Generator: Sketch 43.1 (39012) - http://www.bohemiancoding.com/sketch -->
    <title>Group</title>
    <desc>Created with Sketch.</desc>
    <defs>
        <filter x="-9.0%" y="-6.0%" width="118.0%" height="118.0%" filterUnits="objectBoundingBox" id="filter-1">
            <feOffset dx="0" dy="2" in="SourceAlpha" result="shadowOffsetOuter1"></feOffset>
            <feGaussianBlur stdDeviation="2" in="shadowOffsetOuter1" result="shadowBlurOuter1"></feGaussianBlur>
            <feColorMatrix values="0 0 0 0 0   0 0 0 0 0   0 0 0 0 0  0 0 0 0.5 0" type="matrix" in="shadowBlurOuter1" result="shadowMatrixOuter1"></feColorMatrix>
            <feMerge>
                <feMergeNode in="shadowMatrixOuter1"></feMergeNode>
                <feMergeNode in="SourceGraphic"></feMergeNode>
            </feMerge>
        </filter>
        <linearGradient x1="50%" y1="0%" x2="50%" y2="100%" id="linearGradient-2">
            <stop stop-color="#EFEFEF" offset="0%"></stop>
            <stop stop-color="#8F8E95" offset="100%"></stop>
        </linearGradient>
        <path d="M50,100 C22.3857625,100 0,77.6142375 0,50 C0,22.3857625 22.3857625,0 50,0 C77.6142375,0 100,22.3857625 100,50 C100,77.6142375 77.6142375,100 50,100 Z M50,96 C75.4050985,96 96,75.4050985 96,50 C96,24.5949015 75.4050985,4 50,4 C24.5949015,4 4,24.5949015 4,50 C4,75.4050985 24.5949015,96 50,96 Z" id="path-3"></path>
        <filter x="-3.5%" y="-2.5%" width="107.0%" height="107.0%" filterUnits="objectBoundingBox" id="filter-4">
            <feOffset dx="0" dy="1" in="SourceAlpha" result="shadowOffsetOuter1"></feOffset>
            <feGaussianBlur stdDeviation="1" in="shadowOffsetOuter1" result="shadowBlurOuter1"></feGaussianBlur>
            <feColorMatrix values="0 0 0 0 0   0 0 0 0 0   0 0 0 0 0  0 0 0 0.5 0" type="matrix" in="shadowBlurOuter1"></feColorMatrix>
        </filter>
        <linearGradient x1="50%" y1="0%" x2="50%" y2="100%" id="linearGradient-5">
            <stop stop-color="#EFEFEF" offset="0%"></stop>
            <stop stop-color="#8E8D94" offset="100%"></stop>
        </linearGradient>
        <path d="M50,92 C26.8040405,92 8,73.1959595 8,50 C8,26.8040405 26.8040405,8 50,8 C73.1959595,8 92,26.8040405 92,50 C92,73.1959595 73.1959595,92 50,92 Z M65.4685315,40 C66.1637151,40 66.7272727,39.4403559 66.7272727,38.75 L66.7272727,36.25 C66.7272727,35.5596441 66.1637151,35 65.4685315,35 L55.3986014,35 L55.3986014,31.25 C55.3986014,30.5596441 54.8350437,30 54.1398601,30 L46.5874126,30 C45.892229,30 45.3286713,30.5596441 45.3286713,31.25 L45.3286713,35 L35.2587413,35 C34.5635577,35 34,35.5596441 34,36.25 L34,38.75 C34,39.4403559 34.5635577,40 35.2587413,40 L65.4685315,40 Z M36.5174825,43.75 L36.5174825,66.25 C36.5174825,68.3210678 38.2081555,70 40.2937063,70 L60.4335664,70 C62.5191172,70 64.2097902,68.3210678 64.2097902,66.25 L64.2097902,43.75 L59.1748252,43.75 L59.1748252,65 L41.5524476,65 L41.5524476,43.75 L36.5174825,43.75 Z" id="path-6"></path>
        <filter x="-4.2%" y="-3.0%" width="108.3%" height="108.3%" filterUnits="objectBoundingBox" id="filter-7">
            <feOffset dx="0" dy="1" in="SourceAlpha" result="shadowOffsetOuter1"></feOffset>
            <feGaussianBlur stdDeviation="1" in="shadowOffsetOuter1" result="shadowBlurOuter1"></feGaussianBlur>
            <feColorMatrix values="0 0 0 0 0   0 0 0 0 0   0 0 0 0 0  0 0 0 0.5 0" type="matrix" in="shadowBlurOuter1"></feColorMatrix>
        </filter>
    </defs>
    <g id="Page-1" stroke="none" stroke-width="1" fill="none" fill-rule="evenodd">
        <g id="Group" filter="url(#filter-1)" transform="translate(5.000000, 2.000000)">
            <g id="Combined-Shape">
                <use fill="black" fill-opacity="1" filter="url(#filter-4)" xlink:href="#path-3"></use>
                <use fill="url(#linearGradient-2)" fill-rule="evenodd" xlink:href="#path-3"></use>
            </g>
            <g id="Combined-Shape">
                <use fill="black" fill-opacity="1" filter="url(#filter-7)" xlink:href="#path-6"></use>
                <use fill="url(#linearGradient-5)" fill-rule="evenodd" xlink:href="#path-6"></use>
            </g>
        </g>
    </g>
</svg>