<?xml version="1.0" encoding="utf-8"?>
<!-- Generator: Adobe Illustrator 16.0.0, SVG Export Plug-In . SVG Version: 6.00 Build 0)  -->
<!DOCTYPE svg PUBLIC "-//W3C//DTD SVG 1.1//EN" "http://www.w3.org/Graphics/SVG/1.1/DTD/svg11.dtd">
<svg version="1.1" id="Layer_1" xmlns="http://www.w3.org/2000/svg" xmlns:xlink="http://www.w3.org/1999/xlink" x="0px" y="0px"
	 width="830.959px" height="829.458px" viewBox="253.108 170.612 830.959 829.458"
	 enable-background="new 253.108 170.612 830.959 829.458" xml:space="preserve">
<g>
	<g transform="translate(600 600) scale(0.69 0.69) rotate(0) translate(-600 -600)">
		<g>
			<rect x="339.999" y="219.71" fill="#62656F" width="480" height="120.001"/>
			<path fill="#62656F" d="M1060,483.71v-504H99.999v1200h840c198,0,360.001-162,360.001-360.001
				C1299.999,663.71,1198,531.71,1060,483.71z M219.999,99.71h720V459.71c-41.999,0-84,6-120,23.999V459.71h-480v120h330
				c-30,36-54,78-72,120H339.999v120H580l0,0c0,90.001,36,174.001,89.999,240.001h-450V99.71z M939.999,1059.71
				c-131.999,0-240-108.001-240-240.001S808,579.71,939.999,579.71c132,0,240.001,107.999,240.001,239.999
				S1071.999,1059.71,939.999,1059.71z"/>
			<polygon fill="#62656F" points="999.999,639.711 880,639.711 880,759.71 760,759.71 760,879.71 880,879.71 880,999.71 
				999.999,999.71 999.999,879.71 1119.999,879.71 1119.999,759.71 999.999,759.71 			"/>
		</g>
	</g>
</g>
</svg>
