<?xml version="1.0" encoding="UTF-8"?>
<svg width="24px" height="24px" viewBox="0 0 24 24" version="1.1" xmlns="http://www.w3.org/2000/svg" xmlns:xlink="http://www.w3.org/1999/xlink">
    <!-- Generator: Sketch 43.1 (39012) - http://www.bohemiancoding.com/sketch -->
    <title>Group</title>
    <desc>Created with Sketch.</desc>
    <defs></defs>
    <g id="Page-1" stroke="none" stroke-width="1" fill="none" fill-rule="evenodd">
        <g id="Group" fill-rule="nonzero" fill="#FFFFFF">
            <path d="M10,17 C9.73480519,16.9999434 9.48049273,16.8945494 9.293,16.707 L5.293,12.707 C5.04041323,12.4542346 4.94186216,12.0859163 5.03447004,11.740787 C5.12707792,11.3956578 5.39677539,11.1261509 5.74197004,11.033787 C6.08716469,10.9414232 6.45541323,11.0402346 6.708,11.293 L10,14.585 L17.292,7.293 C17.6827415,6.90225856 18.3162585,6.90225857 18.707,7.29300002 C19.0977414,7.68374147 19.0977414,8.31725854 18.707,8.708 L10.707,16.708 C10.5193437,16.8951827 10.2650514,17.0002087 10,17 L10,17 Z" id="Shape"></path>
            <path d="M12,24 C5.372583,24 8.11624501e-16,18.627417 0,12 C-8.11624501e-16,5.372583 5.372583,1.21743675e-15 12,0 C18.627417,-1.21743675e-15 24,5.372583 24,12 C23.9928352,18.624447 18.624447,23.9928352 12,24 Z M12,2 C6.4771525,2 2,6.4771525 2,12 C2,17.5228475 6.4771525,22 12,22 C17.5228475,22 22,17.5228475 22,12 C21.9939376,6.47966557 17.5203344,2.00606237 12,2 L12,2 Z" id="Shape"></path>
        </g>
    </g>
</svg>