<?xml version="1.0" encoding="UTF-8"?>
<svg width="654px" height="494px" viewBox="0 0 654 494" version="1.1" xmlns="http://www.w3.org/2000/svg" xmlns:xlink="http://www.w3.org/1999/xlink">
    <!-- Generator: Sketch 43.1 (39012) - http://www.bohemiancoding.com/sketch -->
    <title>Combined Shape</title>
    <desc>Created with Sketch.</desc>
    <defs>
        <path d="M488,257.006027 C488,254.241275 490.238593,252 493.000524,252 L1122.99948,252 C1125.76119,252 1128,254.246882 1128,257.006027 L1128,726.993973 C1128,729.758725 1125.76141,732 1122.99948,732 L493.000524,732 C490.238811,732 488,729.753118 488,726.993973 L488,257.006027 Z M927.688935,481.318919 L931.413286,432.914392 C931.413286,369.61246 870.908631,318.322364 807.654858,318.322364 C744.356939,318.322364 683.89643,369.61246 683.89643,432.914392 L687.616768,481.274773 C684.077029,482.129608 680.882435,483.750985 678.213584,486.038572 C673.26116,490.25656 670.146832,496.48923 670.146832,503.500482 L670.146832,527.335527 C670.146832,539.937319 680.292478,550.159219 692.922364,550.239485 C692.922364,610.005692 764.720472,666.661583 807.634792,666.677636 L807.638805,666.677636 L807.654858,666.677636 C842.518479,666.677636 896.473413,629.273591 915.476434,583.184744 C915.564727,582.964012 915.636966,582.74328 915.729272,582.522548 C919.947261,572.087943 922.387353,561.2199 922.387353,550.243498 C934.969079,550.155206 945.146832,539.945346 945.146832,527.343554 L945.146832,503.508508 C945.146832,492.744812 937.698129,483.779078 927.688935,481.318919 Z" id="path-1"></path>
    </defs>
    <g id="Page-1" stroke="none" stroke-width="1" fill="none" fill-rule="evenodd">
        <g id="Desktop-HD" transform="translate(-481.000000, -245.000000)">
            <g id="Combined-Shape">
                <use fill-opacity="0.5" fill="#000000" fill-rule="evenodd" style="mix-blend-mode: color;" xlink:href="#path-1"></use>
                <path stroke="#FFFFFF" stroke-width="7" d="M484.5,257.006027 L484.5,726.993973 C484.5,731.686585 488.306278,735.5 493.000524,735.5 L1122.99948,735.5 C1127.69521,735.5 1131.5,731.690912 1131.5,726.993973 L1131.5,257.006027 C1131.5,252.313415 1127.69372,248.5 1122.99948,248.5 L493.000524,248.5 C488.304786,248.5 484.5,252.309088 484.5,257.006027 Z M687.396525,432.781195 C687.481314,373.13178 744.509498,321.822364 807.654858,321.822364 C870.771488,321.822364 927.828327,373.145288 927.913192,432.781174 L924.199249,481.050415 L923.971578,484.009403 L926.853535,484.717758 C935.486227,486.839587 941.646832,494.545803 941.646832,503.508508 L941.646832,527.343554 C941.646832,538.009923 933.033181,546.668705 922.362792,546.743585 L918.887353,546.767974 L918.887353,550.243498 C918.887353,560.398316 916.69539,570.793462 912.48436,581.210854 C912.436256,581.325239 912.387898,581.451515 912.316893,581.644369 C912.309675,581.663981 912.309675,581.663981 912.302822,581.682618 C912.260014,581.799049 912.243229,581.843717 912.226766,581.884876 C903.46426,603.136448 886.402373,623.729245 865.418204,639.41089 C845.449961,654.333325 823.985801,663.177636 807.654858,663.177636 L807.638805,663.177636 L807.634792,663.177636 C787.316317,663.170035 759.439939,649.527416 736.56659,628.299444 C711.659883,605.184382 696.422364,576.946826 696.422364,550.239485 L696.422364,546.761658 L692.944607,546.739556 C682.245464,546.67156 673.646832,538.019468 673.646832,527.335527 L673.646832,503.500482 C673.646832,497.709104 676.158632,492.386179 680.482985,488.70312 C682.740192,486.768394 685.435961,485.402045 688.438387,484.67697 L691.335025,483.977442 L691.106457,481.006313 L687.396525,432.781195 Z"></path>
            </g>
        </g>
    </g>
</svg>