<?xml version="1.0" encoding="UTF-8"?>
<svg width="63px" height="63px" viewBox="0 0 63 63" version="1.1" xmlns="http://www.w3.org/2000/svg" xmlns:xlink="http://www.w3.org/1999/xlink">
    <!-- Generator: Sketch 43.1 (39012) - http://www.bohemiancoding.com/sketch -->
    <title>Group</title>
    <desc>Created with Sketch.</desc>
    <defs></defs>
    <g id="Page-1" stroke="none" stroke-width="1" fill="none" fill-rule="evenodd">
        <g id="Desktop-HD" transform="translate(-206.000000, -205.000000)">
            <g id="Group" transform="translate(206.000000, 205.000000)">
                <circle id="Oval" fill="#4284D4" cx="31.5" cy="31.5" r="31.5"></circle>
                <g id="u1542" transform="translate(17.000000, 17.000000)" fill-rule="nonzero" fill="#FFFFFF">
                    <path d="M25.474736,4.52528169 L16.4964477,4.52528169 L16.4964477,0.0361250602 L13.5036517,0.0361250602 L13.5036517,4.52528169 L4.52536337,4.52528169 C1.98148301,4.52528169 0.0362316867,6.47055795 0.0362316867,9.01443831 L0.0362316867,22.4819331 C0.0362316867,25.0257886 1.98150795,26.9710648 4.52536337,26.9710648 L25.474736,26.9710648 C28.0185914,26.9710648 29.9638677,25.0257886 29.9638677,22.4819331 L29.9638677,9.01443831 C29.9638927,6.47058289 28.0185914,4.52528169 25.474736,4.52528169 Z M6.32100108,23.9782937 C6.91958024,22.1826311 8.56555446,20.9855227 10.5108806,20.9855227 C12.4562317,20.9855227 14.1022558,22.1826311 14.7007601,23.9782937 L6.32100108,23.9782937 Z M26.9711465,22.4819331 C26.9711465,23.3797645 26.3725673,23.9782937 25.474736,23.9782937 L17.8431448,23.9782937 C17.094977,20.536582 14.102181,17.9927765 10.5108806,17.9927765 C7.06916892,17.9927765 4.22603639,20.2373299 3.32823,23.3797645 C3.17856651,23.0805123 3.02895289,22.7811853 3.02895289,22.4819331 L3.02895289,9.01443831 C3.02895289,8.11660699 3.62748217,7.51807771 4.52536337,7.51807771 L25.474736,7.51807771 C26.3725673,7.51807771 26.9711465,8.11660699 26.9711465,9.01443831 L26.9711465,22.4819331 L26.9711465,22.4819331 Z" id="Shape"></path>
                    <path d="M15.0000372,13.5035949 C15.0000372,10.9597395 13.054736,9.01443831 10.5108806,9.01443831 C7.96702518,9.01443831 6.02174892,10.9597395 6.02174892,13.5035949 C6.02174892,16.0474504 7.96702518,17.9927516 10.5108806,17.9927516 C13.054736,17.9927516 15.0000372,16.0474504 15.0000372,13.5035949 Z M10.5108806,15.0000054 C9.61304928,15.0000054 9.01452,14.4014263 9.01452,13.50357 C9.01452,12.6057387 9.61304928,12.0072094 10.5108806,12.0072094 C11.4087119,12.0072094 12.007316,12.6058135 12.007316,13.50357 C12.007316,14.4014013 11.4087119,15.0000054 10.5108806,15.0000054 Z" id="Shape"></path>
                    <rect id="Rectangle-path" x="16.4964477" y="10.5108488" width="7.48192771" height="2.99277108"></rect>
                    <rect id="Rectangle-path" x="17.9928083" y="16.496366" width="5.98556711" height="2.99277108"></rect>
                </g>
            </g>
        </g>
    </g>
</svg>