<?xml version="1.0" encoding="UTF-8"?>
<svg width="30px" height="30px" viewBox="0 0 30 30" version="1.1" xmlns="http://www.w3.org/2000/svg" xmlns:xlink="http://www.w3.org/1999/xlink">
    <!-- Generator: Sketch 43.1 (39012) - http://www.bohemiancoding.com/sketch -->
    <title>u31</title>
    <desc>Created with Sketch.</desc>
    <defs></defs>
    <g id="Page-1" stroke="none" stroke-width="1" fill="none" fill-rule="evenodd">
        <g id="u31" fill-rule="nonzero" fill="#62656F">
            <path d="M15,0 C6.75,0 0,6.75 0,15 C0,23.25 6.75,30 15,30 C23.25,30 30,23.25 30,15 C30,6.75 23.25,0 15,0 Z M25.3499412,9 L21,9 C20.55,7.05 19.8,5.4 18.9,3.6 C21.5999412,4.65 24,6.45 25.3499412,9 Z M15,3 C16.1999412,4.8 17.25,6.75 17.85,9 L12.15,9 C12.75,6.9 13.8,4.8 15,3 Z M3.45,18 C3.15,17.1 3,16.05 3,15 C3,13.95 3.15,12.9 3.44994118,12 L8.54994118,12 C8.39994118,13.05 8.39994118,13.95 8.39994118,15 C8.39994118,16.05 8.54994118,16.95 8.54994118,18 L3.45,18 Z M4.65,21 L9,21 C9.44994118,22.95 10.1999412,24.6 11.1,26.4 C8.4,25.35 6,23.55 4.65,21 Z M9,9 L4.65,9 C6.15,6.45 8.4,4.65 11.1,3.6 C10.2,5.4 9.45,7.05 9,9 Z M15,27 C13.8,25.2 12.75,23.25 12.15,21 L17.85,21 C17.25,23.1 16.2,25.2 15,27 Z M18.45,18 L11.55,18 C11.4,16.95 11.25,16.05 11.25,15 C11.25,13.95 11.4,13.05 11.55,12 L18.6,12 C18.7500588,13.05 18.9000588,13.95 18.9000588,15 C18.9,16.05 18.5999412,16.95 18.45,18 Z M18.9,26.4 C19.8,24.75 20.55,22.9500588 21,21 L25.3499412,21 C24,23.55 21.5999412,25.35 18.9,26.4 Z M21.5999412,18 C21.75,16.95 21.75,16.05 21.75,15 C21.75,13.95 21.5999412,13.05 21.5999412,12 L26.6999412,12 C27,12.9 27.1498824,13.95 27.1498824,15 C27.1498824,16.05 26.9998235,17.1 26.6999412,18 L21.5999412,18 Z" id="Shape"></path>
        </g>
    </g>
</svg>