<?xml version="1.0" encoding="UTF-8"?>
<svg width="30px" height="27px" viewBox="0 0 30 27" version="1.1" xmlns="http://www.w3.org/2000/svg" xmlns:xlink="http://www.w3.org/1999/xlink">
    <!-- Generator: Sketch 43.1 (39012) - http://www.bohemiancoding.com/sketch -->
    <title>u627</title>
    <desc>Created with Sketch.</desc>
    <defs></defs>
    <g id="Page-1" stroke="none" stroke-width="1" fill="none" fill-rule="evenodd">
        <g id="u627" fill-rule="nonzero" fill="#62656F">
            <polygon id="Shape" points="23.9783169 7.3879594 21.7337136 9.48289916 24.277569 11.8770911 12.0072076 11.8770911 12.0072076 14.8698871 24.277569 14.8698871 21.7337136 17.264079 23.9783169 19.3590188 29.9638341 13.3735016"></polygon>
            <path d="M6.17130398,20.7057907 C4.07633928,18.7604895 3.0288694,16.2166341 3.0288694,13.3734766 C3.0288694,10.5303441 4.07633928,7.98648867 6.17130398,6.04118747 C10.2115449,2.00097145 16.9452799,2.00097145 20.9854959,6.04118747 L23.0804357,3.94624771 C17.8431112,-1.29107675 9.31368867,-1.29107675 4.07633928,3.94624771 C1.3828453,6.34046458 0.0360983133,9.78215133 0.0360983133,13.3734766 C0.0360983133,16.9648019 1.3828453,20.4064887 3.92670072,22.9503441 C6.6201947,25.4941995 10.0618814,26.8409465 13.5035433,26.8409465 C16.9452549,26.8409465 20.3869417,25.4941995 23.0804107,22.9503441 L20.985471,20.7057907 C16.7956413,24.8956702 10.2115699,24.8956702 6.17130398,20.7057907 Z" id="Shape"></path>
        </g>
    </g>
</svg>