<?xml version="1.0" encoding="utf-8"?>
<!-- Generator: Adobe Illustrator 16.0.0, SVG Export Plug-In . SVG Version: 6.00 Build 0)  -->
<!DOCTYPE svg PUBLIC "-//W3C//DTD SVG 1.1//EN" "http://www.w3.org/Graphics/SVG/1.1/DTD/svg11.dtd">
<svg version="1.1" id="Layer_1" xmlns="http://www.w3.org/2000/svg" xmlns:xlink="http://www.w3.org/1999/xlink" x="0px" y="0px"
	 width="827px" height="746px" viewBox="205.5 223.5 827 746" enable-background="new 205.5 223.5 827 746" xml:space="preserve">
<g>
	<g transform="translate(600 600) scale(0.69 0.69) rotate(0) translate(-600 -600)">
		<g>
			<path fill="#62656F" d="M1048.984,234.202H688.985V54.203H568.984v179.999H208.985c-102.001,0-180,78-180,180v540.001
				c0,102,78,179.999,180,179.999h839.999c102,0,180-77.999,180-179.999V414.203
				C1228.985,312.203,1150.984,234.202,1048.984,234.202z M280.985,1014.203c24.001-72,89.999-120,168-120s144.001,48,168,120
				H280.985z M1108.985,954.203c0,36-24.001,59.999-60.001,59.999h-306c-30-138-150-239.999-294-239.999c-138,0-252,89.999-288,216
				c-6-12-12-24.001-12-36V414.203c0-36,24-59.999,60.001-59.999h839.999c36,0,60.001,23.999,60.001,59.999V954.203z"/>
			<path fill="#62656F" d="M628.985,594.203c0-102-78-180-180-180s-180,78-180,180c0,102,78,180,180,180
				S628.985,696.203,628.985,594.203z M448.985,654.203c-36,0-59.999-24.001-59.999-60.001s23.999-60,59.999-60
				s60.001,24.001,60.001,60S484.984,654.203,448.985,654.203z"/>
			<rect x="688.985" y="474.203" fill="#62656F" width="300" height="120"/>
			<rect x="748.985" y="714.203" fill="#62656F" width="240.001" height="120"/>
		</g>
	</g>
</g>
</svg>
