<?xml version="1.0" encoding="utf-8"?>
<!-- Generator: Adobe Illustrator 16.0.0, SVG Export Plug-In . SVG Version: 6.00 Build 0)  -->
<!DOCTYPE svg PUBLIC "-//W3C//DTD SVG 1.1//EN" "http://www.w3.org/Graphics/SVG/1.1/DTD/svg11.dtd">
<svg version="1.1" id="Layer_1" xmlns="http://www.w3.org/2000/svg" xmlns:xlink="http://www.w3.org/1999/xlink" x="0px" y="0px"
	 width="830px" height="744.1px" viewBox="196.5 216.5 830 744.1" enable-background="new 196.5 216.5 830 744.1"
	 xml:space="preserve">
<g>
	<g transform="translate(600 600) scale(0.69 0.69) rotate(0) translate(-600 -600)">
		<g>
			<polygon fill="#62656F" points="980.29,342.609 890.289,426.609 992.289,522.608 500.289,522.608 500.289,642.609 
				992.289,642.609 890.289,738.608 980.29,822.608 1220.289,582.609 			"/>
			<path fill="#62656F" d="M266.289,876.609c-84.001-78-126.001-180-126.001-294.001c0-114,42-216,126.001-294
				c162-161.999,432-161.999,593.999,0l84-84c-209.999-209.999-552-209.999-762,0c-108,96-162,234-162,378s54,282,156,384
				c108,102,246,156,383.999,156c138.001,0,276.001-54,384-156l-84-89.999C692.289,1044.609,428.29,1044.609,266.289,876.609z"/>
		</g>
	</g>
</g>
</svg>
