<?xml version="1.0" encoding="utf-8"?>
<!-- Generator: Adobe Illustrator 16.0.0, SVG Export Plug-In . SVG Version: 6.00 Build 0)  -->
<!DOCTYPE svg PUBLIC "-//W3C//DTD SVG 1.1//EN" "http://www.w3.org/Graphics/SVG/1.1/DTD/svg11.dtd">
<svg version="1.1" id="Layer_1" xmlns="http://www.w3.org/2000/svg" xmlns:xlink="http://www.w3.org/1999/xlink" x="0px" y="0px"
	 width="747px" height="752px" viewBox="193.5 233.5 747 752" enable-background="new 193.5 233.5 747 752" xml:space="preserve">
<g>
	<g transform="translate(600 600) scale(0.69 0.69) rotate(0) translate(-600 -600)">
		<path fill="#62656F" d="M990.173,316.144c36-84,0-179.999-77.999-222c-30-18-60.001-23.999-90.001-23.999
			c-54,0-107.999,23.999-138,72c-192.001-36-378,48-480,216c-18,23.999-23.999,48-36,72c-90,18-156,90.001-156,180
			c0,90,66,162,156,180c36,96,102,173.999,192.001,227.999c77.999,48,161.999,72.001,252,72.001c23.999,0,48,0,72-6.001
			c36,42.001,84,72.001,138,72.001c30,0,60-6.001,90.001-24.001c77.999-47.999,107.999-138,77.999-222c12-12,24.001-30,30-48
			C1128.174,688.145,1110.174,472.145,990.173,316.144z M768.173,214.145c12-18,30-30,54-30c12,0,18,0,30,6.001
			c30,18,36,54,23.999,84c-18,30-54,36-84,23.999C762.174,280.145,756.173,244.145,768.173,214.145z M132.173,610.145
			c0-36,23.999-60,59.999-60c36.001,0,60.001,24.001,60.001,60s-23.999,60.001-60.001,60.001
			C162.174,670.146,132.173,646.145,132.173,610.145z M642.173,970.146c-77.999,5.999-156-12-222-54.001
			c-59.999-36-107.999-89.999-138-155.999c54-30,89.999-84,89.999-150c0-66-36-120-84-150c6-18,12-30,18-42.001
			c72.001-120,204.001-179.999,336-168c0,60,36.001,120.001,90.001,150c30,18,59.999,24.001,90,24.001c30,0,60-6.001,84-24.001
			c84,114,90.001,270.001,12,396c-6,6.001-6,12-12,18c-23.999-11.999-54-23.999-84-23.999c-30,0-59.999,6-90,23.999
			C678.174,850.144,642.173,910.145,642.173,970.146z M852.173,1024.145c-30,18-66,6-84-24.001c-18-29.999-6-66,23.999-84
			c12-5.999,18.001-5.999,30-5.999c24.001,0,42.001,12,54,30C888.173,970.146,882.173,1006.145,852.173,1024.145z"/>
	</g>
</g>
</svg>
