<?xml version="1.0" encoding="utf-8"?>
<!-- Generator: Adobe Illustrator 16.0.0, SVG Export Plug-In . SVG Version: 6.00 Build 0)  -->
<!DOCTYPE svg PUBLIC "-//W3C//DTD SVG 1.1//EN" "http://www.w3.org/Graphics/SVG/1.1/DTD/svg11.dtd">
<svg version="1.1" id="Layer_1" xmlns="http://www.w3.org/2000/svg" xmlns:xlink="http://www.w3.org/1999/xlink" x="0px" y="0px"
	 width="836px" height="830px" viewBox="228.5 74.5 836 830" enable-background="new 228.5 74.5 836 830" xml:space="preserve">
<g>
	<g transform="translate(600 600) scale(0.69 0.69) rotate(0) translate(-600 -600)">
		<g>
			<path fill="#62656F" d="M488.115,323.479c132,0,240.001-108.001,240.001-240.001S620.115-156.522,488.115-156.522
				S248.116-48.522,248.116,83.478S356.115,323.479,488.115,323.479z M488.115-36.522c66,0,120,54,120,120
				c0,66-54,120.001-120,120.001s-120-54.001-120-120.001C368.115,17.478,422.115-36.522,488.115-36.522z"/>
			<path fill="#62656F" d="M1214.116,377.478c-66-66-186-66-252,0l-156.001,156c-77.999-95.999-191.999-150-318-150
				c-234,0-420,186.001-420,420.001v59.999h480v180h252l414-414C1286.115,563.478,1286.115,443.478,1214.116,377.478z
				 M488.115,503.479c90.001,0,174.001,41.999,234,113.999L596.116,743.478H194.115
				C224.115,605.479,344.116,503.479,488.115,503.479z M752.115,923.479h-84v-84l252-252l84,84L752.115,923.479z M1130.116,545.478
				l-42.001,42.001l-84-84l42.001-42.001c23.999-23.999,59.999-23.999,84,0C1154.115,485.479,1154.115,521.479,1130.116,545.478z"/>
		</g>
	</g>
</g>
</svg>
