<?xml version="1.0" encoding="UTF-8"?>
<svg width="30px" height="31px" viewBox="0 0 30 31" version="1.1" xmlns="http://www.w3.org/2000/svg" xmlns:xlink="http://www.w3.org/1999/xlink">
    <!-- Generator: Sketch 43.1 (39012) - http://www.bohemiancoding.com/sketch -->
    <title>u3390</title>
    <desc>Created with Sketch.</desc>
    <defs></defs>
    <g id="Page-1" stroke="none" stroke-width="1" fill="none" fill-rule="evenodd">
        <g id="u3390" fill-rule="nonzero" fill="#62656F">
            <path d="M27.1777263,6.8525433 C28.1766539,4.52168445 27.1777263,1.85790523 25.0134109,0.692489678 C24.1809712,0.193025871 23.3485038,0.0265656836 22.5160641,0.0265656836 C21.0176727,0.0265656836 19.519309,0.692489678 18.6868416,2.02442091 C13.3591721,1.0254933 8.19810161,3.3563244 5.3678067,8.0179866 C4.8683429,8.68391059 4.70188271,9.34989008 4.36887909,10.0158418 C1.8715878,10.5153056 0.0401927614,12.5131886 0.0401927614,15.0104799 C0.0401927614,17.5077712 1.87156005,19.5056819 4.36887909,20.0051457 C5.3678067,22.6689527 7.19917399,24.8332403 9.69652078,26.3316318 C11.8608362,27.6635908 14.1916673,28.3295425 16.6890141,28.3295425 C17.3549381,28.3295425 18.0209176,28.3295425 18.6868693,28.1630268 C19.6858247,29.3284701 21.0177004,30.160882 22.5161196,30.160882 C23.3485592,30.160882 24.1809712,29.9943664 25.0134664,29.4949025 C27.1777818,28.1630268 28.0102214,25.6656523 27.1777818,23.3348489 C27.5107576,23.0019008 27.8437613,22.502437 28.0102214,22.0028899 C31.0069765,17.1747953 30.5075127,11.1812574 27.1777263,6.8525433 Z M21.0177004,4.02227614 C21.3506485,3.52278458 21.8501401,3.18983646 22.5160918,3.18983646 C22.8490677,3.18983646 23.0155556,3.18983646 23.3485315,3.35635214 C24.1809712,3.85581595 24.3474591,4.85474357 24.0144555,5.68718324 C23.5149917,6.51965067 22.5160363,6.68611086 21.6836244,6.35313499 C20.8512125,5.85361568 20.6846968,4.85468807 21.0177004,4.02227614 Z M3.36997922,15.0104799 C3.36997922,14.0115523 4.03590322,13.3455728 5.03483083,13.3455728 C6.03375845,13.3455728 6.69973794,14.01158 6.69973794,15.0104799 C6.69973794,16.0093798 6.03381394,16.6753592 5.03483083,16.6753592 C4.2024189,16.6753315 3.36997922,16.0093798 3.36997922,15.0104799 Z M17.521426,24.9997283 C15.3571106,25.166244 13.1927674,24.6667802 11.3613724,23.5013369 C9.69652078,22.5024092 8.36461729,21.0040456 7.53214987,19.172706 C9.03054129,18.3402109 10.0294134,16.8418472 10.0294134,15.0104799 C10.0294134,13.1791126 9.03048579,11.6807212 7.69858231,10.8482815 C7.86509799,10.3488177 8.03155818,10.0158418 8.19804611,9.6828382 C10.1959291,6.35307949 13.8586637,4.68820013 17.5213705,5.02114826 C17.5213705,6.68602761 18.5203259,8.35090697 20.018745,9.1833189 C20.851157,9.68281046 21.6835966,9.84932614 22.5160363,9.84932614 C23.348476,9.84932614 24.1809434,9.68281046 24.8468674,9.1833189 C27.1776985,12.3465897 27.3442142,16.675276 25.1798433,20.1715227 C25.0133276,20.3380383 25.0133276,20.504554 24.8468674,20.6709865 C24.1809434,20.3380383 23.348476,20.0050902 22.5160363,20.0050902 C21.6835966,20.0050902 20.8511847,20.1716059 20.018745,20.6709865 C18.5203814,21.6699418 17.521426,23.3348489 17.521426,24.9997283 Z M23.3485315,26.4981197 C22.5160918,26.9975835 21.5171642,26.6646354 21.0177004,25.8321402 C20.5182366,24.9997283 20.8511847,24.0008007 21.6836244,23.5013369 C22.0165725,23.3348212 22.1830882,23.3348212 22.5160363,23.3348212 C23.1820436,23.3348212 23.6815074,23.6678525 24.0144555,24.1673164 C24.3474314,24.9997283 24.1809712,25.9986559 23.3485315,26.4981197 Z" id="Shape"></path>
        </g>
    </g>
</svg>