<?xml version="1.0" encoding="UTF-8"?>
<svg width="63px" height="63px" viewBox="0 0 63 63" version="1.1" xmlns="http://www.w3.org/2000/svg" xmlns:xlink="http://www.w3.org/1999/xlink">
    <!-- Generator: Sketch 43.1 (39012) - http://www.bohemiancoding.com/sketch -->
    <title>Group 3</title>
    <desc>Created with Sketch.</desc>
    <defs></defs>
    <g id="Page-1" stroke="none" stroke-width="1" fill="none" fill-rule="evenodd">
        <g id="Desktop-HD" transform="translate(-366.000000, -205.000000)">
            <g id="Group-3" transform="translate(366.000000, 205.000000)">
                <circle id="Oval" fill="#863739" cx="31.5" cy="31.5" r="31.5"></circle>
                <g id="u3390" transform="translate(16.000000, 18.000000)" fill-rule="nonzero" fill="#FFFFFF">
                    <path d="M24.4469387,6.18859453 C25.3456371,4.07538216 24.4469387,1.66033622 22.4997837,0.603742617 C21.7508683,0.150916787 21.001928,0 20.2530126,0 C18.904965,0 17.5569423,0.603742617 16.808002,1.81130332 C12.0148937,0.905651662 7.37166834,3.01883887 4.8253561,7.24521329 C4.37600688,7.84895591 4.22624877,8.45274884 3.92665766,9.05651662 C1.67993652,9.50934245 0.0322977547,11.3206709 0.0322977547,13.5847749 C0.0322977547,15.8488789 1.67991156,17.6602326 3.92665766,18.1130584 C4.8253561,20.5281295 6.4729699,22.4903244 8.71974097,23.8488019 C10.666896,25.0563878 12.763859,25.6601556 15.01063,25.6601556 C15.6097374,25.6601556 16.2088946,25.6601556 16.8080269,25.5091885 C17.7067503,26.5658072 18.9049899,27.3204918 20.2530626,27.3204918 C21.0019779,27.3204918 21.7508683,27.1695247 22.4998336,26.7166989 C24.4469886,25.5091885 25.195904,23.245009 24.4469886,21.1318469 C24.7465548,20.8299882 25.0461459,20.3771624 25.195904,19.9242611 C27.8919743,15.546995 27.4426251,10.1131102 24.4469387,6.18859453 Z M18.9049899,3.62260665 C19.2045311,3.16975566 19.6539053,2.86789693 20.2530376,2.86789693 C20.5526037,2.86789693 20.7023868,2.86789693 21.001953,3.01886403 C21.7508683,3.47168986 21.9006514,4.37734152 21.6010603,5.13205124 C21.1517111,5.88678612 20.2529877,6.0377029 19.5040973,5.73581901 C18.7552069,5.28294287 18.6053988,4.37729121 18.9049899,3.62260665 Z M3.02798418,13.5847749 C3.02798418,12.6791233 3.62709151,12.0753303 4.52578995,12.0753303 C5.42448839,12.0753303 6.02364565,12.6791484 6.02364565,13.5847749 C6.02364565,14.4904014 5.42453832,15.0941944 4.52578995,15.0941944 C3.77689955,15.0941692 3.02798418,14.4904014 3.02798418,13.5847749 Z M15.7595204,22.6412664 C13.8123655,22.7922335 11.8651855,22.3394077 10.2175467,21.2827889 C8.71974097,20.3771372 7.52147638,19.0186849 6.77253605,17.3583487 C8.12058371,16.6035886 9.01923222,15.2451363 9.01923222,13.5847749 C9.01923222,11.9244135 8.12053378,10.5659361 6.9222692,9.81122634 C7.07207723,9.3584005 7.22183534,9.05651662 7.37161841,8.75460757 C9.16904026,5.7357687 12.4642679,4.22634926 15.7594705,4.52820799 C15.7594705,6.03762743 16.6581939,7.54704687 18.0062665,8.30173143 C18.7551569,8.75458242 19.5040723,8.90554952 20.2529877,8.90554952 C21.001903,8.90554952 21.7508434,8.75458242 22.3499507,8.30173143 C24.4469137,11.1696284 24.5967218,15.0941189 22.6495168,18.2638997 C22.4997088,18.4148668 22.4997088,18.5658339 22.3499507,18.7167255 C21.7508434,18.4148668 21.001903,18.1130081 20.2529877,18.1130081 C19.5040723,18.1130081 18.7551819,18.2639752 18.0062665,18.7167255 C16.6582438,19.6224024 15.7595204,21.1318469 15.7595204,22.6412664 Z M21.001953,23.9997439 C20.2530376,24.4525697 19.3543392,24.150711 18.9049899,23.3959509 C18.4556407,22.6412664 18.7551819,21.7356147 19.5040973,21.2827889 C19.8036385,21.1318218 19.9534465,21.1318218 20.2529877,21.1318218 C20.8521699,21.1318218 21.3015191,21.433756 21.6010603,21.8865818 C21.9006264,22.6412664 21.7508683,23.546918 21.001953,23.9997439 Z" id="Shape"></path>
                </g>
            </g>
        </g>
    </g>
</svg>