<?xml version="1.0" encoding="UTF-8"?>
<svg width="42px" height="42px" viewBox="0 0 42 42" version="1.1" xmlns="http://www.w3.org/2000/svg" xmlns:xlink="http://www.w3.org/1999/xlink">
    <!-- Generator: Sketch 43.1 (39012) - http://www.bohemiancoding.com/sketch -->
    <title>next</title>
    <desc>Created with Sketch.</desc>
    <defs></defs>
    <g id="Page-1" stroke="none" stroke-width="1" fill="none" fill-rule="evenodd">
        <g id="Desktop-HD" transform="translate(-447.000000, -215.000000)">
            <g id="next" transform="translate(449.000000, 217.000000)">
                <g id="Group-4">
                    <circle id="Oval-2" stroke="#BEC1C6" stroke-width="2.5" fill="#FFFFFF" cx="19" cy="19" r="19"></circle>
                    <path d="M17.4636726,10.4148048 C16.8994236,9.85899355 15.99255,9.86214217 15.4321741,10.421858 C14.8717982,10.9815739 14.8675808,11.8884432 15.4227266,12.4533468 L22.5167567,19.5497808 L15.4227266,26.6438109 C15.0581467,27.0083908 14.9157621,27.5397775 15.0492076,28.0378029 C15.1826531,28.5358283 15.5716552,28.9248304 16.0696806,29.0582759 C16.567706,29.1917214 17.0990927,29.0493368 17.4636726,28.6847569 L25.5769737,20.5690518 C25.8478167,20.29851 26,19.9313958 26,19.5485789 C26,19.1657619 25.8478167,18.7986477 25.5769737,18.5281059 L17.4636726,10.4148048 Z" id="Shape" fill="#BDC1C6" fill-rule="nonzero"></path>
                </g>
            </g>
        </g>
    </g>
</svg>