<?xml version="1.0" encoding="UTF-8"?>
<svg width="106px" height="106px" viewBox="0 0 106 106" version="1.1" xmlns="http://www.w3.org/2000/svg" xmlns:xlink="http://www.w3.org/1999/xlink">
    <!-- Generator: Sketch 43.1 (39012) - http://www.bohemiancoding.com/sketch -->
    <title>Photo</title>
    <desc>Created with Sketch.</desc>
    <defs>
        <linearGradient x1="50%" y1="0%" x2="50%" y2="100%" id="linearGradient-1">
            <stop stop-color="#F0F0F0" offset="0%"></stop>
            <stop stop-color="#8E8D94" offset="100%"></stop>
        </linearGradient>
        <path d="M50,91.8918919 C26.863747,91.8918919 8.10810811,73.136253 8.10810811,50 C8.10810811,26.863747 26.863747,8.10810811 50,8.10810811 C73.136253,8.10810811 91.8918919,26.863747 91.8918919,50 C91.8918919,73.136253 73.136253,91.8918919 50,91.8918919 Z M58.1900518,39.4425676 L54.551107,35.8108108 L45.448893,35.8108108 L41.8099482,39.4425676 L35.4442208,39.4425676 C33.4355233,39.4425676 31.805276,41.0695946 31.805276,43.0743243 L31.805276,61.2331081 C31.805276,63.2378378 33.4355233,64.8648649 35.4442208,64.8648649 L64.5557792,64.8648649 C66.5644767,64.8648649 68.194724,63.2378378 68.194724,61.2331081 L68.194724,43.0743243 C68.194724,41.0695946 66.5644767,39.4425676 64.5557792,39.4425676 L58.1900518,39.4425676 Z" id="path-2"></path>
        <filter x="-6.0%" y="-4.8%" width="111.9%" height="111.9%" filterUnits="objectBoundingBox" id="filter-3">
            <feOffset dx="0" dy="1" in="SourceAlpha" result="shadowOffsetOuter1"></feOffset>
            <feGaussianBlur stdDeviation="1.5" in="shadowOffsetOuter1" result="shadowBlurOuter1"></feGaussianBlur>
            <feColorMatrix values="0 0 0 0 0   0 0 0 0 0   0 0 0 0 0  0 0 0 1 0" type="matrix" in="shadowBlurOuter1"></feColorMatrix>
        </filter>
        <linearGradient x1="50%" y1="0%" x2="50%" y2="100%" id="linearGradient-4">
            <stop stop-color="#EDEDED" offset="0%"></stop>
            <stop stop-color="#909196" offset="100%"></stop>
        </linearGradient>
        <path d="M50,100 C22.3857625,100 0,77.6142375 0,50 C0,22.3857625 22.3857625,0 50,0 C77.6142375,0 100,22.3857625 100,50 C100,77.6142375 77.6142375,100 50,100 Z M50,95.9459459 C75.3752453,95.9459459 95.9459459,75.3752453 95.9459459,50 C95.9459459,24.6247547 75.3752453,4.05405405 50,4.05405405 C24.6247547,4.05405405 4.05405405,24.6247547 4.05405405,50 C4.05405405,75.3752453 24.6247547,95.9459459 50,95.9459459 Z" id="path-5"></path>
        <filter x="-5.0%" y="-4.0%" width="110.0%" height="110.0%" filterUnits="objectBoundingBox" id="filter-6">
            <feOffset dx="0" dy="1" in="SourceAlpha" result="shadowOffsetOuter1"></feOffset>
            <feGaussianBlur stdDeviation="1.5" in="shadowOffsetOuter1" result="shadowBlurOuter1"></feGaussianBlur>
            <feColorMatrix values="0 0 0 0 0   0 0 0 0 0   0 0 0 0 0  0 0 0 1 0" type="matrix" in="shadowBlurOuter1"></feColorMatrix>
        </filter>
        <linearGradient x1="50%" y1="0.442442602%" x2="50%" y2="100%" id="linearGradient-7">
            <stop stop-color="#CDCED0" offset="0%"></stop>
            <stop stop-color="#AEAFB4" offset="100%"></stop>
        </linearGradient>
        <ellipse id="path-8" cx="50" cy="52.1585586" rx="5.46326912" ry="5.45247748"></ellipse>
        <filter x="-91.5%" y="-82.5%" width="283.0%" height="283.4%" filterUnits="objectBoundingBox" id="filter-9">
            <feMorphology radius="5" operator="dilate" in="SourceAlpha" result="shadowSpreadOuter1"></feMorphology>
            <feOffset dx="0" dy="1" in="shadowSpreadOuter1" result="shadowOffsetOuter1"></feOffset>
            <feMorphology radius="1" operator="erode" in="SourceAlpha" result="shadowInner"></feMorphology>
            <feOffset dx="0" dy="1" in="shadowInner" result="shadowInner"></feOffset>
            <feComposite in="shadowOffsetOuter1" in2="shadowInner" operator="out" result="shadowOffsetOuter1"></feComposite>
            <feGaussianBlur stdDeviation="1.5" in="shadowOffsetOuter1" result="shadowBlurOuter1"></feGaussianBlur>
            <feColorMatrix values="0 0 0 0 0   0 0 0 0 0   0 0 0 0 0  0 0 0 1 0" type="matrix" in="shadowBlurOuter1"></feColorMatrix>
        </filter>
    </defs>
    <g id="Page-1" stroke="none" stroke-width="1" fill="none" fill-rule="evenodd">
        <g id="Desktop-HD" transform="translate(-782.000000, -506.000000)">
            <g id="Photo" transform="translate(785.000000, 508.000000)">
                <g id="Combined-Shape">
                    <use fill="black" fill-opacity="1" filter="url(#filter-3)" xlink:href="#path-2"></use>
                    <use fill="url(#linearGradient-1)" fill-rule="evenodd" xlink:href="#path-2"></use>
                </g>
                <g id="Combined-Shape">
                    <use fill="black" fill-opacity="1" filter="url(#filter-6)" xlink:href="#path-5"></use>
                    <use fill="url(#linearGradient-4)" fill-rule="evenodd" xlink:href="#path-5"></use>
                </g>
                <g id="Oval" fill-rule="nonzero">
                    <use fill="black" fill-opacity="1" filter="url(#filter-9)" xlink:href="#path-8"></use>
                    <ellipse stroke="url(#linearGradient-7)" stroke-width="5" cx="50" cy="52.1585586" rx="7.96326912" ry="7.95247748"></ellipse>
                </g>
            </g>
        </g>
    </g>
</svg>