<?xml version="1.0" encoding="UTF-8"?>
<svg width="24px" height="24px" viewBox="0 0 24 24" version="1.1" xmlns="http://www.w3.org/2000/svg" xmlns:xlink="http://www.w3.org/1999/xlink">
    <!-- Generator: Sketch 43.1 (39012) - http://www.bohemiancoding.com/sketch -->
    <title>Group 2</title>
    <desc>Created with Sketch.</desc>
    <defs></defs>
    <g id="Page-1" stroke="none" stroke-width="1" fill="none" fill-rule="evenodd">
        <g id="Group-2" fill-rule="nonzero" fill="#FFFFFF">
            <path d="M6.33802817,10.5458847 C5.57746479,11.2208214 6.67605634,12.4019605 7.43661972,11.6426568 L11.1549296,8.18360656 L11.1549296,17.6327193 C11.1549296,18.6451242 12.7605634,18.6451242 12.7605634,17.6327193 L12.7605634,8.18360656 L16.5633803,11.6426568 C17.3239437,12.4019605 18.4225352,11.2208214 17.6619718,10.5458847 L12.5915493,5.7369613 C12.2535211,5.48386006 11.7464789,5.48386006 11.4084507,5.7369613 L6.33802817,10.5458847 Z" id="Shape"></path>
            <path d="M12,24 C5.372583,24 8.11624501e-16,18.627417 0,12 C-8.11624501e-16,5.372583 5.372583,1.21743675e-15 12,0 C18.627417,-1.21743675e-15 24,5.372583 24,12 C23.9928352,18.624447 18.624447,23.9928352 12,24 Z M12,2 C6.4771525,2 2,6.4771525 2,12 C2,17.5228475 6.4771525,22 12,22 C17.5228475,22 22,17.5228475 22,12 C21.9939376,6.47966557 17.5203344,2.00606237 12,2 L12,2 Z" id="Shape"></path>
        </g>
    </g>
</svg>